<svg xmlns="http://www.w3.org/2000/svg" viewBox="0 0 734.12 529.94"><defs><style>.cls-1,.cls-3{fill:#313266;}.cls-2{fill:none;}.cls-2,.cls-3{stroke:#313266;stroke-miterlimit:10;stroke-width:3px;}</style></defs><g id="Layer_2" data-name="Layer 2"><g id="Layer_1-2" data-name="Layer 1"><path class="cls-1" d="M370.75,115.1a4.7,4.7,0,0,0,2.77,6.05l156.06,58.07-162.52,51L0,115.1,367.06,0,734.12,115.1,544.26,174.62l-167.45-62.3A4.69,4.69,0,0,0,370.75,115.1Z"/><path class="cls-1" d="M529.58,179.22l14.68-4.6h0v200.9a7.34,7.34,0,0,1-7.33,7.34h0a7.34,7.34,0,0,1-7.34-7.34V179.22"/><polyline class="cls-2" points="368.04 270.08 615.72 192.43 615.72 450.86 368.04 528.51"/><path class="cls-3" d="M119.39,191.82V450.25l75.91,23.8V332.93l77.59,24.15V498.37l94.17,29.53V269.47Z"/></g></g></svg>