<svg xmlns="http://www.w3.org/2000/svg" viewBox="0 0 3112.89 688.55"><defs><style>.cls-1,.cls-3{fill:#fff;}.cls-2{fill:none;}.cls-2,.cls-3{stroke:#fff;stroke-miterlimit:10;stroke-width:3px;}</style></defs><g id="Layer_2" data-name="Layer 2"><g id="Layer_1-2" data-name="Layer 1"><path class="cls-1" d="M482,149.64a6.11,6.11,0,0,0,3.6,7.87L688.51,233,477.22,299.26,0,149.64,477.22,0,954.44,149.64,707.6,227,489.89,146A6.11,6.11,0,0,0,482,149.64Z"/><path class="cls-1" d="M688.51,233l19.09-6h0v261.2a9.54,9.54,0,0,1-9.54,9.54h0a9.54,9.54,0,0,1-9.54-9.54V233"/><polyline class="cls-2" points="478.5 351.14 800.5 250.18 800.5 586.16 478.5 687.12"/><path class="cls-3" d="M155.22,249.39v336l98.69,30.94V432.84l100.88,31.41V647.94l122.43,38.39v-336Z"/><path class="cls-1" d="M1115.81,306h9.1l102.9,217h-55.3l-10.5-21.7h-83L1068.91,523h-55.3Zm28.7,158.56-24.15-53.21h-.7l-24.5,53.21Z"/><path class="cls-1" d="M1334.56,306c39.9,0,67.55,15,90,38.5l-35.35,33.6c-14.7-14.35-33.6-23.45-54.6-23.45-37.45,0-61.6,28-61.6,63.35s24.15,63.36,61.6,63.36c21,0,39.9-9.1,54.6-23.45l34.3,33.6c-21,22-50,38.5-88.9,38.5-66.5,0-113.75-49.35-113.75-112S1268.06,306,1334.56,306Z"/><path class="cls-1" d="M1554,306c66.15,0,113,49.35,113,112s-46.9,112-113,112c-66.5,0-113-49.35-113-112S1487.51,306,1554,306Zm0,175.36c37.1,0,60.9-28,60.9-63.36s-23.8-63.35-60.9-63.35c-37.45,0-60.9,28-60.9,63.35S1516.56,481.34,1554,481.34Z"/><path class="cls-1" d="M1702.76,313h48l53.55,113.41L1858.16,313h47.25V523h-51.1V429.54L1808.46,530h-8.4l-45.85-101.15V523h-51.45Z"/><path class="cls-1" d="M2054.16,306c66.15,0,113.05,49.35,113.05,112s-46.9,112-113.05,112c-66.5,0-113-49.35-113-112S1987.66,306,2054.16,306Zm0,175.36c37.1,0,60.9-28,60.9-63.36s-23.8-63.35-60.9-63.35c-37.45,0-60.9,28-60.9,63.35S2016.71,481.34,2054.16,481.34Z"/><path class="cls-1" d="M2202.91,313h73.15c62,0,109.9,45.5,109.9,104.66,0,56-42.7,105.35-109.9,105.35h-73.15ZM2275,476.09c32.9,0,58.1-23.1,58.1-58.45,0-32.56-22.05-58.11-58.1-58.11h-20.65V476.09Z"/><path class="cls-1" d="M2421,313h139v45.5h-87.5v37.8h80.85v44.81H2472.4v37.8h91.35V523H2421Z"/><path class="cls-1" d="M2588.6,313h48l53.55,113.41L2744,313h47.25V523h-51.1V429.54L2694.3,530h-8.4l-45.85-101.15V523H2588.6Z"/><path class="cls-1" d="M2824.84,313h51.45V523h-51.45Z"/><path class="cls-1" d="M3000.89,306h9.1l102.9,217h-55.3l-10.5-21.7h-83L2954,523h-55.3Zm28.7,158.56-24.15-53.21h-.7l-24.5,53.21Z"/></g></g></svg>